<svg width="77" height="76" viewBox="0 0 77 76" fill="none" xmlns="http://www.w3.org/2000/svg">
<rect width="76" height="76" transform="translate(0.54541)" fill="white"/>
<path d="M47.6002 21.8427H62.4068V25.4349H47.6002V21.8427ZM32.7638 36.0556C36.0369 34.4896 37.7513 32.1072 37.7513 28.4259C37.7513 21.1451 32.3334 19.3787 26.0767 19.3787H8.85797V55.924H26.5591C33.1943 55.924 39.4213 52.7326 39.4213 45.3107C39.4213 40.724 37.2541 37.3322 32.7638 36.0556V36.0556ZM16.8884 25.613H24.4216C27.3236 25.613 29.9287 26.422 29.9287 29.7916C29.9287 32.8939 27.9025 34.1408 25.0302 34.1408H16.8884V25.613ZM25.4607 49.7193H16.881V39.6552H25.6314C29.1642 39.6552 31.3982 41.1322 31.3982 44.8728C31.3982 48.5541 28.7338 49.7193 25.4607 49.7193V49.7193ZM68.1959 43.0767C68.1959 35.2466 63.6166 28.7228 55.3338 28.7228C47.281 28.7228 41.8037 34.7865 41.8037 42.7353C41.8037 50.9736 46.9916 56.6291 55.3338 56.6291C61.6498 56.6291 65.7392 53.7865 67.706 47.7228H61.3009C60.6033 49.9865 57.7681 51.174 55.5638 51.174C51.3037 51.174 49.0771 48.6802 49.0771 44.4423H68.1439C68.1662 44.0044 68.1959 43.5443 68.1959 43.0767V43.0767ZM49.0771 39.8556C49.3072 36.3748 51.6302 34.2001 55.1037 34.2001C58.7552 34.2001 60.581 36.3451 60.9002 39.8556H49.0771Z" fill="#F82103"/>
</svg>
